<svg width="18" height="14" viewBox="0 0 18 14" fill="none" xmlns="http://www.w3.org/2000/svg">
<g clip-path="url(#clip0_12_92)">
<path d="M4.09092 13.9311V6.75625L1.93409 4.72059L0 3.59094V12.6649C0 13.3655 0.550195 13.9311 1.2273 13.9311H4.09092Z" fill="#4285F4"/>
<path d="M13.9091 13.9311H16.7727C17.4519 13.9311 18 13.3634 18 12.6649V3.59106L15.8094 4.88494L13.9091 6.7563V13.9311Z" fill="#34A853"/>
<path d="M4.09091 6.75633L3.79742 3.95292L4.09091 1.26978L8.99999 5.0682L13.9091 1.26978L14.2374 3.80806L13.9091 6.75633L8.99999 10.5548L4.09091 6.75633Z" fill="#EA4335"/>
<path d="M13.9091 1.2697V6.75625L18 3.59094V1.90275C18 0.336994 16.2675 -0.555598 15.0546 0.383418L13.9091 1.2697Z" fill="#FBBC04"/>
<path d="M0 3.59098L1.88149 5.04683L4.09092 6.75628V1.26973L2.94539 0.383451C1.73039 -0.555637 0 0.337027 0 1.90271V3.5909V3.59098Z" fill="#C5221F"/>
</g>
<defs>
<clipPath id="clip0_12_92">
<rect width="18" height="14" fill="white"/>
</clipPath>
</defs>
</svg>
