<svg width="24" height="24" viewBox="0 0 24 24" fill="none" xmlns="http://www.w3.org/2000/svg">
<path d="M12.5031 3C8.53694 3 7.37699 3.00409 7.15152 3.0228C6.33759 3.09045 5.83112 3.21861 5.27934 3.49332C4.85412 3.70448 4.51876 3.94924 4.18778 4.29234C3.58501 4.91805 3.21969 5.68785 3.08745 6.60289C3.02315 7.04712 3.00445 7.13771 3.00065 9.40677C2.99919 10.1631 3.00065 11.1585 3.00065 12.4937C3.00065 16.4566 3.00503 17.6154 3.02403 17.8404C3.08979 18.6325 3.21399 19.1307 3.47702 19.6758C3.9797 20.7191 4.93975 21.5024 6.07076 21.7946C6.46238 21.8955 6.89492 21.951 7.4502 21.9773C7.68546 21.9875 10.0834 21.9948 12.4828 21.9948C14.8822 21.9948 17.2816 21.9919 17.511 21.9802C18.154 21.95 18.5273 21.8998 18.9401 21.7932C19.5009 21.6494 20.0236 21.3848 20.4716 21.0181C20.9196 20.6514 21.2821 20.1913 21.5339 19.67C21.7918 19.1381 21.9226 18.6208 21.9817 17.8701C21.9946 17.7065 22 15.0971 22 12.4912C22 9.88489 21.9942 7.28033 21.9813 7.11667C21.9214 6.35389 21.7906 5.84099 21.5244 5.29886C21.3059 4.85507 21.0633 4.52366 20.7112 4.18479C20.0828 3.58451 19.3142 3.21919 18.3981 3.08709C17.9543 3.02294 17.8659 3.00395 15.5951 3H12.5031Z" fill="url(#paint0_radial_54_114)"/>
<path d="M12.5031 3C8.53694 3 7.37699 3.00409 7.15152 3.0228C6.33759 3.09045 5.83112 3.21861 5.27934 3.49332C4.85412 3.70448 4.51876 3.94924 4.18778 4.29234C3.58501 4.91805 3.21969 5.68785 3.08745 6.60289C3.02315 7.04712 3.00445 7.13771 3.00065 9.40677C2.99919 10.1631 3.00065 11.1585 3.00065 12.4937C3.00065 16.4566 3.00503 17.6154 3.02403 17.8404C3.08979 18.6325 3.21399 19.1307 3.47702 19.6758C3.9797 20.7191 4.93975 21.5024 6.07076 21.7946C6.46238 21.8955 6.89492 21.951 7.4502 21.9773C7.68546 21.9875 10.0834 21.9948 12.4828 21.9948C14.8822 21.9948 17.2816 21.9919 17.511 21.9802C18.154 21.95 18.5273 21.8998 18.9401 21.7932C19.5009 21.6494 20.0236 21.3848 20.4716 21.0181C20.9196 20.6514 21.2821 20.1913 21.5339 19.67C21.7918 19.1381 21.9226 18.6208 21.9817 17.8701C21.9946 17.7065 22 15.0971 22 12.4912C22 9.88489 21.9942 7.28033 21.9813 7.11667C21.9214 6.35389 21.7906 5.84099 21.5244 5.29886C21.3059 4.85507 21.0633 4.52366 20.7112 4.18479C20.0828 3.58451 19.3142 3.21919 18.3981 3.08709C17.9543 3.02294 17.8659 3.00395 15.5951 3H12.5031Z" fill="url(#paint1_radial_54_114)"/>
<path d="M12.4987 5.48413C10.5938 5.48413 10.3547 5.49246 9.60656 5.52651C8.85986 5.5607 8.35017 5.67892 7.90419 5.85237C7.44287 6.03152 7.05154 6.27117 6.66168 6.66118C6.27152 7.05104 6.03187 7.44237 5.85214 7.90355C5.67825 8.34967 5.55989 8.8595 5.52628 9.60592C5.49296 10.3541 5.48419 10.5933 5.48419 12.4982C5.48419 14.4031 5.49267 14.6414 5.52657 15.3896C5.56091 16.1363 5.67912 16.646 5.85243 17.092C6.03173 17.5533 6.27137 17.9446 6.66139 18.3345C7.0511 18.7246 7.44243 18.9649 7.90346 19.144C8.34973 19.3175 8.85957 19.4357 9.60612 19.4699C10.3543 19.5039 10.5932 19.5123 12.498 19.5123C14.403 19.5123 14.6413 19.5039 15.3895 19.4699C16.1362 19.4357 16.6465 19.3175 17.0928 19.144C17.5539 18.9649 17.9447 18.7246 18.3344 18.3345C18.7246 17.9446 18.9642 17.5533 19.1439 17.0921C19.3164 16.646 19.4347 16.1362 19.4698 15.3897C19.5034 14.6416 19.5122 14.4031 19.5122 12.4982C19.5122 10.5933 19.5034 10.3542 19.4698 9.60606C19.4347 8.85936 19.3164 8.34967 19.1439 7.90369C18.9642 7.44237 18.7246 7.05104 18.3344 6.66118C17.9442 6.27102 17.5541 6.03137 17.0923 5.85237C16.6452 5.67892 16.1352 5.5607 15.3885 5.52651C14.6403 5.49246 14.4021 5.48413 12.4967 5.48413H12.4987ZM11.8695 6.74812C12.0562 6.74783 12.2646 6.74812 12.4987 6.74812C14.3715 6.74812 14.5934 6.75485 15.333 6.78846C16.0168 6.81973 16.388 6.934 16.6352 7.03C16.9626 7.15713 17.1959 7.3091 17.4413 7.5546C17.6868 7.80009 17.8387 8.03389 17.9662 8.36121C18.0622 8.60817 18.1766 8.97933 18.2077 9.6632C18.2413 10.4026 18.2486 10.6247 18.2486 12.4966C18.2486 14.3685 18.2413 14.5906 18.2077 15.33C18.1764 16.0139 18.0622 16.385 17.9662 16.632C17.839 16.9593 17.6868 17.1924 17.4413 17.4377C17.1958 17.6832 16.9627 17.8352 16.6352 17.9623C16.3883 18.0587 16.0168 18.1727 15.333 18.204C14.5936 18.2376 14.3715 18.2449 12.4987 18.2449C10.6258 18.2449 10.4038 18.2376 9.66443 18.204C8.98056 18.1724 8.6094 18.0582 8.362 17.9622C8.03468 17.835 7.80088 17.6831 7.55539 17.4376C7.30989 17.1921 7.15792 16.9589 7.0305 16.6314C6.9345 16.3844 6.82008 16.0133 6.78895 15.3294C6.75535 14.59 6.74862 14.3679 6.74862 12.4948C6.74862 10.6218 6.75535 10.4008 6.78895 9.66145C6.82023 8.97757 6.9345 8.60641 7.0305 8.35917C7.15763 8.03184 7.30989 7.79804 7.55539 7.55255C7.80088 7.30706 8.03468 7.15509 8.362 7.02766C8.60925 6.93122 8.98056 6.81724 9.66443 6.78582C10.3115 6.7566 10.5622 6.74783 11.8695 6.74637V6.74812ZM16.2427 7.91275C16.0763 7.91275 15.9135 7.96212 15.7751 8.05462C15.6367 8.14712 15.5288 8.27859 15.4651 8.43241C15.4014 8.58622 15.3848 8.75547 15.4173 8.91875C15.4498 9.08203 15.5299 9.23201 15.6477 9.34971C15.7654 9.46741 15.9154 9.54755 16.0787 9.57999C16.242 9.61243 16.4113 9.59572 16.565 9.53197C16.7188 9.46822 16.8503 9.3603 16.9427 9.22184C17.0352 9.08339 17.0845 8.92063 17.0844 8.75415C17.0844 8.28947 16.7074 7.91246 16.2427 7.91246V7.91275ZM12.4987 8.89618C10.5095 8.89618 8.89668 10.509 8.89668 12.4982C8.89668 14.4874 10.5095 16.0995 12.4987 16.0995C14.4879 16.0995 16.1003 14.4874 16.1003 12.4982C16.1003 10.509 14.4878 8.89618 12.4985 8.89618H12.4987ZM12.4987 10.1602C13.7899 10.1602 14.8367 11.2069 14.8367 12.4982C14.8367 13.7894 13.7899 14.8362 12.4987 14.8362C11.2074 14.8362 10.1607 13.7894 10.1607 12.4982C10.1607 11.2069 11.2074 10.1602 12.4987 10.1602V10.1602Z" fill="white"/>
<defs>
<radialGradient id="paint0_radial_54_114" cx="0" cy="0" r="1" gradientUnits="userSpaceOnUse" gradientTransform="translate(8.0469 23.4578) rotate(-90) scale(18.8253 17.5138)">
<stop stop-color="#FFDD55"/>
<stop offset="0.1" stop-color="#FFDD55"/>
<stop offset="0.5" stop-color="#FF543E"/>
<stop offset="1" stop-color="#C837AB"/>
</radialGradient>
<radialGradient id="paint1_radial_54_114" cx="0" cy="0" r="1" gradientUnits="userSpaceOnUse" gradientTransform="translate(-0.1826 4.36835) rotate(78.6776) scale(8.41506 34.696)">
<stop stop-color="#3771C8"/>
<stop offset="0.128" stop-color="#3771C8"/>
<stop offset="1" stop-color="#6600FF" stop-opacity="0"/>
</radialGradient>
</defs>
</svg>
