<svg width="20" height="16" viewBox="0 0 20 16" fill="none" xmlns="http://www.w3.org/2000/svg">
<path d="M19.5821 2.50346C19.3521 1.51804 18.6744 0.741958 17.8139 0.478583C16.2542 0 10 0 10 0C10 0 3.74586 0 2.18613 0.478583C1.32565 0.742 0.647936 1.51804 0.417919 2.50346C0 4.28958 0 8.01617 0 8.01617C0 8.01617 0 11.7428 0.417919 13.5289C0.647936 14.5143 1.32565 15.258 2.18613 15.5214C3.74586 16 10 16 10 16C10 16 16.2541 16 17.8139 15.5214C18.6744 15.258 19.3521 14.5143 19.5821 13.5289C20 11.7428 20 8.01617 20 8.01617C20 8.01617 20 4.28958 19.5821 2.50346ZM7.95453 11.3996V4.63271L13.1818 8.01625L7.95453 11.3996Z" fill="#FF011D"/>
</svg>
